<svg width="1327" height="603" xmlns="http://www.w3.org/2000/svg" xmlns:xlink="http://www.w3.org/1999/xlink" xml:space="preserve" overflow="hidden"><defs><filter id="fx0" x="-10%" y="-10%" width="120%" height="120%" filterUnits="userSpaceOnUse" primitiveUnits="userSpaceOnUse"><feComponentTransfer color-interpolation-filters="sRGB"><feFuncR type="discrete" tableValues="0 0"/><feFuncG type="discrete" tableValues="0 0"/><feFuncB type="discrete" tableValues="0 0"/><feFuncA type="linear" slope="0.4" intercept="0"/></feComponentTransfer><feGaussianBlur stdDeviation="3.9499 3.9499"/></filter><filter id="fx1" x="-10%" y="-10%" width="120%" height="120%" filterUnits="userSpaceOnUse" primitiveUnits="userSpaceOnUse"><feComponentTransfer color-interpolation-filters="sRGB"><feFuncR type="discrete" tableValues="0 0"/><feFuncG type="discrete" tableValues="0 0"/><feFuncB type="discrete" tableValues="0 0"/><feFuncA type="linear" slope="0.4" intercept="0"/></feComponentTransfer><feGaussianBlur stdDeviation="3.9499 3.9499"/></filter><filter id="fx2" x="-10%" y="-10%" width="120%" height="120%" filterUnits="userSpaceOnUse" primitiveUnits="userSpaceOnUse"><feComponentTransfer color-interpolation-filters="sRGB"><feFuncR type="discrete" tableValues="0 0"/><feFuncG type="discrete" tableValues="0 0"/><feFuncB type="discrete" tableValues="0 0"/><feFuncA type="linear" slope="0.4" intercept="0"/></feComponentTransfer><feGaussianBlur stdDeviation="1.65137 1.65137"/></filter><clipPath id="clip3"><rect x="381" y="1010" width="1327" height="603"/></clipPath><clipPath id="clip4"><rect x="188" y="136" width="465" height="245"/></clipPath><clipPath id="clip5"><rect x="0" y="0" width="827" height="603"/></clipPath><clipPath id="clip6"><rect x="185" y="191" width="245" height="184"/></clipPath><clipPath id="clip7"><rect x="0" y="0" width="614" height="603"/></clipPath><clipPath id="clip8"><rect x="43" y="37" width="379" height="71"/></clipPath><clipPath id="clip9"><rect x="0" y="0" width="466" height="166"/></clipPath></defs><g clip-path="url(#clip3)" transform="translate(-381 -1010)"><g clip-path="url(#clip4)" filter="url(#fx0)" transform="translate(380 1010)"><g clip-path="url(#clip5)"><path d="M26.8555 0 26.8555-207.996 86.206-207.996C117.716-207.996 143.923-198.82 164.825-180.469 185.728-162.117 196.179-137.5 196.179-106.616 196.179-74.3896 185.728-48.5636 164.825-29.1382 143.923-9.71273 117 0 84.0576 0ZM53.7109-184.094 53.7109-23.7671 83.9233-23.7671C110.331-23.7671 130.943-30.9733 145.758-45.3857 160.573-59.7982 167.981-79.9845 167.981-105.945 167.981-131.905 160.372-151.42 145.154-164.49 129.936-177.559 109.928-184.094 85.1318-184.094ZM312.812-122.461C308.426-125.594 302.384-127.161 294.685-127.161 284.48-127.161 276.065-122.394 269.441-112.86 262.817-103.326 259.504-90.7715 259.504-75.1953L259.504 0 233.186 0 233.186-148.511 259.504-148.511 259.504-118.298 260.041-118.298C267.561-140.141 280.541-151.062 298.982-151.062 304.98-151.062 309.59-150.391 312.812-149.048ZM459.014-67.5415 355.083-67.5415C355.531-51.6968 359.872-39.4552 368.108-30.8166 376.344-22.1781 387.847-17.8589 402.617-17.8589 419.268-17.8589 434.53-23.1852 448.406-33.8379L448.406-10.3394C435.336-1.11898 418.014 3.49121 396.44 3.49121 374.956 3.49121 358.194-3.31217 346.154-16.9189 334.113-30.5257 328.093-49.4141 328.093-73.584 328.093-96.3216 334.695-115.076 347.899-129.846 361.103-144.617 377.507-152.002 397.112-152.002 416.537-152.002 431.711-145.758 442.632-133.27 453.553-120.782 459.014-103.304 459.014-80.835ZM432.695-88.623C432.606-102.051 429.428-112.435 423.162-119.775 416.895-127.116 408.078-130.786 396.709-130.786 386.235-130.786 377.172-126.892 369.518-119.104 361.864-111.316 357.052-101.156 355.083-88.623Z" fill="#4472C4" transform="matrix(1 0 0 1 178.327 360)"/></g></g><text fill="#4472C4" font-family="Microsoft YaHei,Microsoft YaHei_MSFontService,sans-serif" font-weight="400" font-size="275" transform="matrix(1 0 0 1 554.118 1366)">Dre</text><g clip-path="url(#clip6)" filter="url(#fx1)" transform="translate(1095 1010)"><g clip-path="url(#clip7)"><path d="M237.268 0 210.95 0 210.95-85.2661C210.95-101.379 208.443-112.905 203.43-119.843 198.417-126.78 190.181-130.249 178.723-130.249 169.055-130.249 160.775-125.728 153.882-116.687 146.989-107.646 143.542-96.9482 143.542-84.5947L143.542 0 117.224 0 117.224-87.9517C117.224-116.15 106.348-130.249 84.5947-130.249 74.5687-130.249 66.2659-125.952 59.6863-117.358 53.1067-108.765 49.8169-97.7986 49.8169-84.4604L49.8169 0 23.4985 0 23.4985-148.511 49.8169-148.511 49.8169-125.012 50.354-125.012C60.9171-143.005 76.359-152.002 96.6797-152.002 106.616-152.002 115.389-149.272 122.998-143.811 130.607-138.35 135.889-130.965 138.843-121.655 149.854-141.886 166.325-152.002 188.257-152.002 220.931-152.002 237.268-131.86 237.268-91.5771Z" fill="#4472C4" transform="matrix(1 0 0 1 177.754 360)"/></g></g><text fill="#4472C4" font-family="Microsoft YaHei,Microsoft YaHei_MSFontService,sans-serif" font-weight="400" font-size="275" transform="matrix(1 0 0 1 1268.54 1366)">m</text><path d="M1154.19 1175.58 1257.82 1363.69 1043.06 1361.95Z" stroke="#4472C4" stroke-width="4.58333" stroke-miterlimit="8" fill="#4472C4" fill-rule="evenodd"/><path d="M1242.63 1228.32 1149.48 1384.55 1134.97 1375.9 1228.12 1219.67Z" fill="#FFFFFF" fill-rule="evenodd"/><path d="M1200.17 1203 1093.71 1381.55 1079.54 1373.1 1186 1194.55Z" fill="#FFFFFF" fill-rule="evenodd"/><path d="M1283.94 1252.95 1210.75 1375.7 1196.58 1367.25 1269.77 1244.5Z" fill="#FFFFFF" fill-rule="evenodd"/><path d="M576.5 1436.5 1493.21 1436.5" stroke="#4472C4" stroke-width="6.875" stroke-miterlimit="8" fill="none" fill-rule="evenodd"/><rect x="844" y="1373" width="381" height="122" fill="#FFFFFF"/><g clip-path="url(#clip8)" filter="url(#fx2)" transform="translate(803 1364)"><g clip-path="url(#clip9)"><path d="M14.7568 0 0.891113-52.2549 7.98437-52.2549 15.9331-18.0005C16.7886-14.4123 17.5252-10.8478 18.1431-7.30713 19.4738-12.8914 20.258-16.1113 20.4956-16.9668L30.4404-52.2549 38.7812-52.2549 46.2666-25.8066C48.1439-19.248 49.4984-13.0815 50.3301-7.30713 50.9954-10.6102 51.8628-14.4004 52.9321-18.6777L61.1304-52.2549 68.081-52.2549 53.7519 0 47.0864 0 36.0723-39.8149C35.1455-43.1418 34.599-45.1854 34.4326-45.9458 33.8861-43.5457 33.3752-41.5021 32.8999-39.8149L21.8145 0ZM75.0973 0 75.0973-52.2549 112.881-52.2549 112.881-46.0884 82.0124-46.0884 82.0124-30.084 110.92-30.084 110.92-23.9531 82.0124-23.9531 82.0124-6.1665 114.092-6.1665 114.092 0ZM117.914 0 137.982-52.2549 145.431-52.2549 166.818 0 158.941 0 152.846-15.8262 130.995-15.8262 125.257 0ZM132.992-21.458 150.707-21.458 145.253-35.9297C143.59-40.3258 142.354-43.9378 141.546-46.7656 140.881-43.415 139.942-40.0882 138.73-36.7852ZM187.286 0 167.04-52.2549 174.525-52.2549 188.105-14.2935C189.199-11.2518 190.113-8.40023 190.85-5.73877 191.658-8.59033 192.597-11.4419 193.666-14.2935L207.781-52.2549 214.839-52.2549 194.379 0ZM221.191 0 221.191-52.2549 258.974-52.2549 258.974-46.0884 228.106-46.0884 228.106-30.084 257.014-30.084 257.014-23.9531 228.106-23.9531 228.106-6.1665 260.186-6.1665 260.186 0ZM269.853 0 269.853-52.2549 293.022-52.2549C297.68-52.2549 301.221-51.7856 303.644-50.8469 306.068-49.9083 308.005-48.2508 309.454-45.8745 310.904-43.4982 311.629-40.8724 311.629-37.9971 311.629-34.29 310.429-31.1652 308.029-28.6226 305.629-26.0799 301.922-24.464 296.908-23.7749 298.737-22.8957 300.127-22.0283 301.078-21.1728 303.098-19.3193 305.011-17.0024 306.817-14.2222L315.906 0 307.209 0 300.294-10.8716C298.274-14.0083 296.61-16.4084 295.304-18.0718 293.997-19.7352 292.826-20.8996 291.793-21.5649 290.759-22.2303 289.707-22.6937 288.638-22.9551 287.854-23.1214 286.571-23.2046 284.788-23.2046L276.768-23.2046 276.768 0ZM276.768-29.1929 291.632-29.1929C294.793-29.1929 297.264-29.5196 299.046-30.1731 300.828-30.8266 302.183-31.8721 303.11-33.3098 304.036-34.7475 304.5-36.3099 304.5-37.9971 304.5-40.4684 303.603-42.5002 301.809-44.0923 300.015-45.6844 297.181-46.4805 293.307-46.4805L276.768-46.4805ZM320.102-16.7886 326.625-17.3589C326.934-14.745 327.653-12.6003 328.782-10.925 329.91-9.24975 331.663-7.89526 334.039-6.86157 336.415-5.82788 339.089-5.31103 342.059-5.31103 344.697-5.31103 347.026-5.70312 349.046-6.4873 351.065-7.27148 352.568-8.34676 353.555-9.71313 354.541-11.0795 355.034-12.5706 355.034-14.1865 355.034-15.8262 354.559-17.2579 353.608-18.4817 352.658-19.7055 351.089-20.7332 348.903-21.5649 347.501-22.1115 344.4-22.961 339.6-24.1135 334.8-25.266 331.437-26.3532 329.512-27.375 327.017-28.682 325.158-30.3038 323.934-32.2405 322.71-34.1772 322.098-36.3455 322.098-38.7456 322.098-41.3833 322.847-43.8487 324.344-46.1418 325.841-48.435 328.027-50.1756 330.902-51.3638 333.778-52.5519 336.974-53.146 340.491-53.146 344.364-53.146 347.78-52.5222 350.739-51.2747 353.697-50.0271 355.972-48.1914 357.565-45.7676 359.157-43.3437 360.012-40.5991 360.131-37.5337L353.501-37.0347C353.145-40.3377 351.939-42.8328 349.883-44.52 347.828-46.2072 344.792-47.0508 340.776-47.0508 336.594-47.0508 333.546-46.2844 331.633-44.7517 329.72-43.219 328.764-41.3714 328.764-39.209 328.764-37.3317 329.441-35.7871 330.796-34.5752 332.126-33.3633 335.602-32.1217 341.222-30.8503 346.842-29.579 350.697-28.4681 352.788-27.5176 355.83-26.1156 358.076-24.3393 359.525-22.1887 360.975-20.0382 361.699-17.5609 361.699-14.7568 361.699-11.9766 360.903-9.35669 359.311-6.89722 357.719-4.43774 355.432-2.52482 352.45-1.15845 349.467 0.207926 346.111 0.891113 342.38 0.891113 337.651 0.891113 333.689 0.201986 330.493-1.17627 327.296-2.55452 324.789-4.62785 322.972-7.39624 321.154-10.1646 320.197-13.2954 320.102-16.7886Z" fill="#4472C4" transform="matrix(1 0 0 1 50.4098 99)"/></g></g><text fill="#4472C4" font-family="Arial,Arial_MSFontService,sans-serif" font-weight="400" font-size="73" transform="matrix(1 0 0 1 851.565 1461)">WEAVERS</text></g></svg>